<svg width="23" height="29" viewBox="0 0 23 29" fill="none" xmlns="http://www.w3.org/2000/svg">
<path d="M7.18745 4.20851C7.18745 3.09234 7.64189 2.02189 8.45082 1.23264C9.25974 0.443395 10.3569 0 11.5009 0C12.6448 0 13.742 0.443395 14.5509 1.23264C15.3598 2.02189 15.8143 3.09234 15.8143 4.20851C15.8143 5.32468 15.3598 6.39513 14.5509 7.18438C13.742 7.97363 12.6448 8.41702 11.5009 8.41702C10.3569 8.41702 9.25974 7.97363 8.45082 7.18438C7.64189 6.39513 7.18745 5.32468 7.18745 4.20851ZM0.459723 7.51102C1.23853 6.46474 2.73625 6.23678 3.80861 6.99665L5.97729 8.53392C7.58284 9.67373 9.51789 10.2875 11.5009 10.2875C13.4838 10.2875 15.4189 9.67373 17.0244 8.53392L19.1931 6.9908C20.2655 6.23093 21.7632 6.46474 22.542 7.50518C23.3208 8.54561 23.0812 10.0127 22.0148 10.7726L19.8461 12.3157C19.0314 12.8944 18.1627 13.3796 17.2521 13.777V15.8988H5.74964V13.777C4.83903 13.3854 3.97036 12.8944 3.1556 12.3157L0.986917 10.7726C-0.0854445 10.0127 -0.319088 8.55146 0.459723 7.50518V7.51102ZM5.8395 18.3129L9.46996 21.4108L7.91234 23.5852L9.36811 25.0056C10.3027 25.9174 10.3027 27.3962 9.36811 28.3139C8.43354 29.2316 6.91786 29.2258 5.97729 28.3139L3.10169 25.5083C2.27495 24.7016 2.16112 23.4391 2.82611 22.5097L5.83351 18.3129H5.8395ZM13.5377 21.4108L17.1682 18.3129L20.1756 22.5097C20.8406 23.4391 20.7268 24.7016 19.906 25.5024L17.0304 28.3081C16.0958 29.2199 14.5802 29.2199 13.6396 28.3081C12.699 27.3962 12.705 25.9174 13.6396 24.9997L15.0954 23.5793L13.5377 21.405V21.4108Z" fill="url(#paint0_linear_90_121)"/>
<defs>
<linearGradient id="paint0_linear_90_121" x1="2.12963" y1="5.37037" x2="18.3346" y2="25.5667" gradientUnits="userSpaceOnUse">
<stop stop-color="#4AC1F3"/>
<stop offset="1" stop-color="#2767ED"/>
</linearGradient>
</defs>
</svg>
