<svg width="25" height="29" viewBox="0 0 25 29" fill="none" xmlns="http://www.w3.org/2000/svg">
<path d="M21.4286 29H5.35714C2.39955 29 0 26.5645 0 23.5625V5.4375C0 2.43555 2.39955 0 5.35714 0H22.3214C23.8002 0 25 1.21777 25 2.71875V19.0312C25 20.215 24.2522 21.2232 23.2143 21.5971V25.375C24.202 25.375 25 26.185 25 27.1875C25 28.19 24.202 29 23.2143 29H21.4286ZM5.35714 21.75C4.36942 21.75 3.57143 22.56 3.57143 23.5625C3.57143 24.565 4.36942 25.375 5.35714 25.375H19.6429V21.75H5.35714ZM7.14286 8.60938C7.14286 9.3627 7.73996 9.96875 8.48214 9.96875H18.3036C19.0458 9.96875 19.6429 9.3627 19.6429 8.60938C19.6429 7.85605 19.0458 7.25 18.3036 7.25H8.48214C7.73996 7.25 7.14286 7.85605 7.14286 8.60938ZM8.48214 12.6875C7.73996 12.6875 7.14286 13.2936 7.14286 14.0469C7.14286 14.8002 7.73996 15.4062 8.48214 15.4062H18.3036C19.0458 15.4062 19.6429 14.8002 19.6429 14.0469C19.6429 13.2936 19.0458 12.6875 18.3036 12.6875H8.48214Z" fill="#2767ED"/>
</svg>
