<svg width="22" height="25" viewBox="0 0 22 25" fill="none" xmlns="http://www.w3.org/2000/svg">
<path d="M1 8.5H21M1 8.5V19.5002C1 20.9004 1 21.6001 1.27248 22.1349C1.51217 22.6053 1.89434 22.9881 2.36475 23.2278C2.899 23.5 3.59874 23.5 4.99614 23.5H17.0039C18.4013 23.5 19.1 23.5 19.6342 23.2278C20.1046 22.9881 20.4881 22.6053 20.7278 22.1349C21 21.6006 21 20.9019 21 19.5045V8.5M1 8.5V7.50024C1 6.10011 1 5.39953 1.27248 4.86475C1.51217 4.39434 1.89434 4.01217 2.36475 3.77248C2.89953 3.5 3.60011 3.5 5.00024 3.5H6M21 8.5V7.49614C21 6.09874 21 5.399 20.7278 4.86475C20.4881 4.39434 20.1046 4.01217 19.6342 3.77248C19.0995 3.5 18.4004 3.5 17.0002 3.5H16M16 1V3.5M16 3.5H6M6 1V3.5" stroke="#FCFCED" stroke-width="2" stroke-linecap="round" stroke-linejoin="round"/>
</svg>
