<svg width="31" height="14" viewBox="0 0 31 14" fill="none" xmlns="http://www.w3.org/2000/svg">
<path d="M0.39255 12.2056C-0.0461618 12.5411 -0.129843 13.1687 0.205642 13.6075C0.541128 14.0462 1.16874 14.1298 1.60745 13.7944L1 13L0.39255 12.2056ZM9.5 6.5L9.94721 5.60557L9.38863 5.32628L8.89255 5.70564L9.5 6.5ZM19.5 11.5L19.0528 12.3944L19.6975 12.7168L20.2071 12.2071L19.5 11.5ZM31 1C31 0.447715 30.5523 0 30 0H21C20.4477 0 20 0.447715 20 1C20 1.55228 20.4477 2 21 2H29V10C29 10.5523 29.4477 11 30 11C30.5523 11 31 10.5523 31 10V1ZM1 13L1.60745 13.7944L10.1075 7.29436L9.5 6.5L8.89255 5.70564L0.39255 12.2056L1 13ZM9.5 6.5L9.05279 7.39443L19.0528 12.3944L19.5 11.5L19.9472 10.6056L9.94721 5.60557L9.5 6.5ZM19.5 11.5L20.2071 12.2071L30.7071 1.70711L30 1L29.2929 0.292893L18.7929 10.7929L19.5 11.5Z" fill="#FCFCED"/>
</svg>
