<svg width="22" height="22" viewBox="0 0 22 22" fill="none" xmlns="http://www.w3.org/2000/svg">
<path d="M11 22C13.9174 22 16.7153 20.8411 18.7782 18.7782C20.8411 16.7153 22 13.9174 22 11C22 8.08262 20.8411 5.28473 18.7782 3.22183C16.7153 1.15893 13.9174 0 11 0C8.08262 0 5.28473 1.15893 3.22183 3.22183C1.15893 5.28473 0 8.08262 0 11C0 13.9174 1.15893 16.7153 3.22183 18.7782C5.28473 20.8411 8.08262 22 11 22ZM10.2695 16.1992L6.83203 12.7617C6.42812 12.3578 6.42812 11.7047 6.83203 11.3051C7.23594 10.9055 7.88906 10.9012 8.28867 11.3051L9.96445 12.9809V6.53125C9.96445 5.95977 10.4242 5.5 10.9957 5.5C11.5672 5.5 12.027 5.95977 12.027 6.53125V12.9809L13.7027 11.3051C14.1066 10.9012 14.7598 10.9012 15.1594 11.3051C15.559 11.709 15.5633 12.3621 15.1594 12.7617L11.7219 16.1992C11.318 16.6031 10.6648 16.6031 10.2652 16.1992H10.2695Z" fill="#020211"/>
</svg>
