<svg width="20" height="29" viewBox="0 0 20 29" fill="none" xmlns="http://www.w3.org/2000/svg">
<path d="M9.41297 0C9.77342 -5.51723e-09 10.1303 0.0729271 10.4633 0.214617C10.7964 0.356308 11.0989 0.563987 11.3538 0.825796C11.6087 1.08761 11.8109 1.39842 11.9488 1.74049C12.0868 2.08256 12.1578 2.44919 12.1578 2.81944C12.1578 3.1897 12.0868 3.55633 11.9488 3.8984C11.8109 4.24047 11.6087 4.55128 11.3538 4.81309C11.0989 5.0749 10.7964 5.28258 10.4633 5.42427C10.1303 5.56596 9.77342 5.63889 9.41297 5.63889C9.05251 5.63889 8.69559 5.56596 8.36258 5.42427C8.02957 5.28258 7.72698 5.0749 7.47211 4.81309C7.21723 4.55128 7.01505 4.24047 6.87711 3.8984C6.73917 3.55633 6.66818 3.1897 6.66818 2.81944C6.66818 2.44919 6.73917 2.08256 6.87711 1.74049C7.01505 1.39842 7.21723 1.08761 7.47211 0.825796C7.72698 0.563987 8.02957 0.356308 8.36258 0.214617C8.69559 0.0729271 9.05251 -5.51722e-09 9.41297 0ZM5.09973 13.5283L2.83038 16.67C2.31573 17.3849 1.33055 17.5359 0.634548 17.0023C-0.0614517 16.4686 -0.208494 15.4616 0.311055 14.7467L3.76655 9.96372C5.0017 8.25694 6.94756 7.25 9.02085 7.25C11.0941 7.25 13.04 8.25694 14.2752 9.96372L17.7307 14.7467C18.2453 15.4616 18.1032 16.4686 17.4072 17.0023C16.7112 17.5359 15.7309 17.3849 15.2113 16.67L12.942 13.5283V27.3889C12.942 28.28 12.2411 29 11.3735 29C10.506 29 9.80508 28.28 9.80508 27.3889V19.3333C9.80508 18.8903 9.45218 18.5278 9.02085 18.5278C8.58953 18.5278 8.23663 18.8903 8.23663 19.3333V27.3889C8.23663 28.28 7.53573 29 6.66818 29C5.80063 29 5.09973 28.28 5.09973 27.3889V13.5283ZM17.2552 20.9444C17.0396 20.9444 16.8631 21.1257 16.8631 21.3472C16.8631 22.0168 16.3387 22.5556 15.6868 22.5556C15.0349 22.5556 14.5104 22.0168 14.5104 21.3472C14.5104 19.7915 15.7407 18.5278 17.2552 18.5278C18.7697 18.5278 20 19.7915 20 21.3472V27.7917C20 28.4613 19.4755 29 18.8237 29C18.1718 29 17.6473 28.4613 17.6473 27.7917V21.3472C17.6473 21.1257 17.4709 20.9444 17.2552 20.9444Z" fill="#F4442E"/>
</svg>
