<svg width="17" height="32" viewBox="0 0 17 32" fill="none" xmlns="http://www.w3.org/2000/svg">
<path d="M8.59277 1.5L8.59277 0L8.59277 0L8.59277 1.5ZM12.0078 4.91504L13.5078 4.91504L13.5078 4.91493L12.0078 4.91504ZM12.0078 17.2002H10.5078V18.0208L11.1988 18.4633L12.0078 17.2002ZM15.1602 22.9551L16.6602 22.9552V22.9551H15.1602ZM8.33008 29.7852L8.33008 31.2852H8.33008V29.7852ZM1.5 22.9551L-3.04718e-09 22.9551L3.04718e-09 22.9552L1.5 22.9551ZM5.17773 16.8945L5.87107 18.2247L6.67773 17.8042V16.8945H5.17773ZM5.17773 4.91504L3.67773 4.91493V4.91504H5.17773ZM8.59277 1.5V3C9.65033 3 10.5077 3.85733 10.5078 4.91515L12.0078 4.91504L13.5078 4.91493C13.5076 2.20064 11.3074 0 8.59277 0V1.5ZM12.0078 4.91504H10.5078V17.2002H12.0078H13.5078V4.91504H12.0078ZM12.0078 17.2002L11.1988 18.4633C12.6824 19.4135 13.6602 21.0704 13.6602 22.9551H15.1602H16.6602C16.6602 20.0041 15.124 17.4147 12.8168 15.937L12.0078 17.2002ZM15.1602 22.9551L13.6602 22.955C13.66 25.8989 11.2737 28.2852 8.33008 28.2852V29.7852V31.2852C12.9308 31.2852 16.6599 27.5556 16.6602 22.9552L15.1602 22.9551ZM8.33008 29.7852L8.33008 28.2852C5.38641 28.2852 3.00019 25.8989 3 22.955L1.5 22.9551L3.04718e-09 22.9552C0.000293236 27.5556 3.72937 31.2852 8.33008 31.2852L8.33008 29.7852ZM1.5 22.9551H3C3 20.9009 4.16167 19.1157 5.87107 18.2247L5.17773 16.8945L4.4844 15.5644C1.82282 16.9517 0 19.7391 0 22.9551H1.5ZM5.17773 16.8945H6.67773V4.91504H5.17773H3.67773V16.8945H5.17773ZM5.17773 4.91504L6.67773 4.91515C6.67781 3.85734 7.53522 3.00001 8.59278 3L8.59277 1.5L8.59277 0C5.87817 1.35373e-05 3.67793 2.20064 3.67773 4.91493L5.17773 4.91504Z" fill="#FCFCED"/>
</svg>
