<svg width="30" height="29" viewBox="0 0 30 29" fill="none" xmlns="http://www.w3.org/2000/svg">
<path d="M11.7188 2.9H18.2812C18.5391 2.9 18.75 3.1175 18.75 3.38333V5.8H11.25V3.38333C11.25 3.1175 11.4609 2.9 11.7188 2.9ZM8.4375 3.38333V5.8H3.75C1.68164 5.8 0 7.53396 0 9.66667V15.4667H30V9.66667C30 7.53396 28.3184 5.8 26.25 5.8H21.5625V3.38333C21.5625 1.51646 20.0918 0 18.2812 0H11.7188C9.9082 0 8.4375 1.51646 8.4375 3.38333ZM30 18.3667H18.75V19.3333C18.75 20.4027 17.9121 21.2667 16.875 21.2667H13.125C12.0879 21.2667 11.25 20.4027 11.25 19.3333V18.3667H0V25.1333C0 27.266 1.68164 29 3.75 29H26.25C28.3184 29 30 27.266 30 25.1333V18.3667Z" fill="url(#paint0_linear_90_139)"/>
<defs>
<linearGradient id="paint0_linear_90_139" x1="6.29464" y1="4.86241e-08" x2="9.03595" y2="29.8537" gradientUnits="userSpaceOnUse">
<stop stop-color="#2767ED"/>
<stop offset="1" stop-color="#F4442E"/>
</linearGradient>
</defs>
</svg>
